<svg xmlns="http://www.w3.org/2000/svg" viewBox="0 0 64 64">
  <rect width="64" height="64" rx="16" fill="#2b425b"/>
  <path
    fill="#ffd8e6"
    d="M32 32c-7.3 0-14 7.2-14 13.2 0 4.9 3.7 8.8 8.4 8.8 2.4 0 3.7-1.2 5.6-1.2s3.2 1.2 5.6 1.2c4.7 0 8.4-3.9 8.4-8.8C46 39.2 39.3 32 32 32Z"
  />
  <ellipse cx="20.5" cy="25" rx="6.2" ry="8" fill="#ffd8e6" transform="rotate(-18 20.5 25)"/>
  <ellipse cx="31" cy="20" rx="6.2" ry="8.6" fill="#ffd8e6"/>
  <ellipse cx="43.5" cy="25" rx="6.2" ry="8" fill="#ffd8e6" transform="rotate(18 43.5 25)"/>
  <ellipse cx="51" cy="34" rx="5.3" ry="7" fill="#ffd8e6" transform="rotate(24 51 34)"/>
  <ellipse cx="13" cy="34" rx="5.3" ry="7" fill="#ffd8e6" transform="rotate(-24 13 34)"/>
  <path
    fill="#fff3f8"
    opacity=".7"
    d="M24.8 46.8c1.6-4.4 4.5-7.5 7.2-7.5s5.6 3.1 7.2 7.5c-2.7-1.7-4.9-2.5-7.2-2.5s-4.5.8-7.2 2.5Z"
  />
</svg>
